<?xml version="1.0" encoding="utf-8"?>
<!-- Uploaded to: SVG Repo, www.svgrepo.com, Generator: SVG Repo Mixer Tools -->
<svg width="800px" height="800px" viewBox="0 0 1024 1024" class="icon"  version="1.1" xmlns="http://www.w3.org/2000/svg"><path d="M896 32h-256a96 96 0 0 0-96 96v256a96 96 0 0 0 96 96h256a96 96 0 0 0 96-96V128a96 96 0 0 0-96-96z m32 352a32 32 0 0 1-32 32h-256a32 32 0 0 1-32-32V128a32 32 0 0 1 32-32h256a32 32 0 0 1 32 32zM64 224a32 32 0 0 0 12.16-2.56 37.12 37.12 0 0 0 10.56-6.72 32 32 0 0 0 6.72-34.88 32 32 0 0 0-6.72-10.56A32 32 0 0 0 57.6 160a20.8 20.8 0 0 0-5.76 1.92 23.68 23.68 0 0 0-5.76 2.88l-4.8 3.84a32 32 0 0 0-6.72 10.56A32 32 0 0 0 32 192a32 32 0 0 0 32 32zM149.76 128a32 32 0 0 0 17.6-5.44 160 160 0 0 1 115.2-24.32 32 32 0 1 0 10.56-64 225.92 225.92 0 0 0-160 34.24A32 32 0 0 0 149.76 128zM377.92 104a32 32 0 0 0-2.56 45.12A160 160 0 0 1 416 256v128a32 32 0 0 1-32 32H256a160 160 0 0 1-150.72-106.56 32 32 0 0 0-60.16 21.44A224 224 0 0 0 256 480h128a96 96 0 0 0 96-96V256a224 224 0 0 0-56.96-149.44 32 32 0 0 0-45.12-2.56zM896 544h-256a96 96 0 0 0-96 96v256a96 96 0 0 0 96 96h256a96 96 0 0 0 96-96v-256a96 96 0 0 0-96-96z m32 352a32 32 0 0 1-32 32h-256a32 32 0 0 1-32-32v-256a32 32 0 0 1 32-32h256a32 32 0 0 1 32 32zM384 544H128a96 96 0 0 0-96 96v256a96 96 0 0 0 96 96h256a96 96 0 0 0 96-96v-256a96 96 0 0 0-96-96z m32 352a32 32 0 0 1-32 32H128a32 32 0 0 1-32-32v-256a32 32 0 0 1 32-32h256a32 32 0 0 1 32 32z" fill="#fff" /></svg>